<mxfile host="app.diagrams.net" agent="Mozilla/5.0 (Windows NT 10.0; Win64; x64; rv:130.0) Gecko/20100101 Firefox/130.0" version="24.7.17">
  <diagram name="Page-1" id="Iu5GW9sa0HHw1BYSHFXb">
    <mxGraphModel dx="1838" dy="962" grid="1" gridSize="10" guides="1" tooltips="1" connect="1" arrows="1" fold="1" page="1" pageScale="1" pageWidth="850" pageHeight="1100" math="0" shadow="0">
      <root>
        <mxCell id="0" />
        <mxCell id="1" parent="0" />
        <mxCell id="3AU_QloPHfD9-ereCDFl-1" value="" style="edgeStyle=orthogonalEdgeStyle;rounded=0;orthogonalLoop=1;jettySize=auto;html=1;" edge="1" parent="1" source="3AU_QloPHfD9-ereCDFl-2" target="3AU_QloPHfD9-ereCDFl-16">
          <mxGeometry relative="1" as="geometry" />
        </mxCell>
        <mxCell id="3AU_QloPHfD9-ereCDFl-2" value="&lt;div&gt;Index&lt;/div&gt;" style="rounded=1;whiteSpace=wrap;html=1;" vertex="1" parent="1">
          <mxGeometry x="560" y="110" width="120" height="60" as="geometry" />
        </mxCell>
        <mxCell id="3AU_QloPHfD9-ereCDFl-12" value="" style="edgeStyle=orthogonalEdgeStyle;rounded=0;orthogonalLoop=1;jettySize=auto;html=1;entryX=0.5;entryY=0;entryDx=0;entryDy=0;" edge="1" parent="1" source="3AU_QloPHfD9-ereCDFl-13" target="3AU_QloPHfD9-ereCDFl-33">
          <mxGeometry relative="1" as="geometry">
            <mxPoint x="420" y="370" as="targetPoint" />
          </mxGeometry>
        </mxCell>
        <mxCell id="3AU_QloPHfD9-ereCDFl-13" value="Nej" style="rounded=0;whiteSpace=wrap;html=1;" vertex="1" parent="1">
          <mxGeometry x="360" y="230" width="120" height="60" as="geometry" />
        </mxCell>
        <mxCell id="3AU_QloPHfD9-ereCDFl-14" value="" style="edgeStyle=orthogonalEdgeStyle;rounded=0;orthogonalLoop=1;jettySize=auto;html=1;" edge="1" parent="1" source="3AU_QloPHfD9-ereCDFl-16" target="3AU_QloPHfD9-ereCDFl-13">
          <mxGeometry relative="1" as="geometry" />
        </mxCell>
        <mxCell id="3AU_QloPHfD9-ereCDFl-15" value="" style="edgeStyle=orthogonalEdgeStyle;rounded=0;orthogonalLoop=1;jettySize=auto;html=1;" edge="1" parent="1" source="3AU_QloPHfD9-ereCDFl-16" target="3AU_QloPHfD9-ereCDFl-18">
          <mxGeometry relative="1" as="geometry" />
        </mxCell>
        <mxCell id="3AU_QloPHfD9-ereCDFl-16" value="Logged på?" style="rhombus;whiteSpace=wrap;html=1;" vertex="1" parent="1">
          <mxGeometry x="560" y="220" width="120" height="80" as="geometry" />
        </mxCell>
        <mxCell id="3AU_QloPHfD9-ereCDFl-56" value="" style="edgeStyle=orthogonalEdgeStyle;rounded=0;orthogonalLoop=1;jettySize=auto;html=1;" edge="1" parent="1" source="3AU_QloPHfD9-ereCDFl-18" target="3AU_QloPHfD9-ereCDFl-26">
          <mxGeometry relative="1" as="geometry" />
        </mxCell>
        <mxCell id="3AU_QloPHfD9-ereCDFl-18" value="&lt;div&gt;Ja&lt;/div&gt;" style="whiteSpace=wrap;html=1;" vertex="1" parent="1">
          <mxGeometry x="750" y="230" width="120" height="60" as="geometry" />
        </mxCell>
        <mxCell id="3AU_QloPHfD9-ereCDFl-24" value="" style="edgeStyle=orthogonalEdgeStyle;rounded=0;orthogonalLoop=1;jettySize=auto;html=1;" edge="1" parent="1" source="3AU_QloPHfD9-ereCDFl-26" target="3AU_QloPHfD9-ereCDFl-28">
          <mxGeometry relative="1" as="geometry" />
        </mxCell>
        <mxCell id="3AU_QloPHfD9-ereCDFl-25" value="" style="edgeStyle=orthogonalEdgeStyle;rounded=0;orthogonalLoop=1;jettySize=auto;html=1;" edge="1" parent="1" source="3AU_QloPHfD9-ereCDFl-26" target="3AU_QloPHfD9-ereCDFl-30">
          <mxGeometry relative="1" as="geometry" />
        </mxCell>
        <mxCell id="3AU_QloPHfD9-ereCDFl-49" value="" style="edgeStyle=orthogonalEdgeStyle;rounded=0;orthogonalLoop=1;jettySize=auto;html=1;" edge="1" parent="1" source="3AU_QloPHfD9-ereCDFl-26" target="3AU_QloPHfD9-ereCDFl-48">
          <mxGeometry relative="1" as="geometry" />
        </mxCell>
        <mxCell id="3AU_QloPHfD9-ereCDFl-26" value="Vælg relevant udregner" style="rhombus;whiteSpace=wrap;html=1;" vertex="1" parent="1">
          <mxGeometry x="950" y="220" width="120" height="80" as="geometry" />
        </mxCell>
        <mxCell id="3AU_QloPHfD9-ereCDFl-27" value="" style="edgeStyle=orthogonalEdgeStyle;rounded=0;orthogonalLoop=1;jettySize=auto;html=1;" edge="1" parent="1" source="3AU_QloPHfD9-ereCDFl-28" target="3AU_QloPHfD9-ereCDFl-32">
          <mxGeometry relative="1" as="geometry" />
        </mxCell>
        <mxCell id="3AU_QloPHfD9-ereCDFl-28" value="Y" style="whiteSpace=wrap;html=1;" vertex="1" parent="1">
          <mxGeometry x="1100" y="380" width="120" height="60" as="geometry" />
        </mxCell>
        <mxCell id="3AU_QloPHfD9-ereCDFl-29" value="" style="edgeStyle=orthogonalEdgeStyle;rounded=0;orthogonalLoop=1;jettySize=auto;html=1;" edge="1" parent="1" source="3AU_QloPHfD9-ereCDFl-30" target="3AU_QloPHfD9-ereCDFl-31">
          <mxGeometry relative="1" as="geometry" />
        </mxCell>
        <mxCell id="3AU_QloPHfD9-ereCDFl-30" value="X" style="whiteSpace=wrap;html=1;" vertex="1" parent="1">
          <mxGeometry x="950" y="380" width="120" height="60" as="geometry" />
        </mxCell>
        <mxCell id="3AU_QloPHfD9-ereCDFl-58" value="" style="edgeStyle=orthogonalEdgeStyle;rounded=0;orthogonalLoop=1;jettySize=auto;html=1;" edge="1" parent="1" source="3AU_QloPHfD9-ereCDFl-31">
          <mxGeometry relative="1" as="geometry">
            <mxPoint x="1010" y="670" as="targetPoint" />
          </mxGeometry>
        </mxCell>
        <mxCell id="3AU_QloPHfD9-ereCDFl-31" value="Indsæt data fra ordre" style="shape=parallelogram;perimeter=parallelogramPerimeter;whiteSpace=wrap;html=1;fixedSize=1;" vertex="1" parent="1">
          <mxGeometry x="940" y="530" width="140" height="60" as="geometry" />
        </mxCell>
        <mxCell id="3AU_QloPHfD9-ereCDFl-32" value="Indsæt data fra ordre" style="shape=parallelogram;perimeter=parallelogramPerimeter;whiteSpace=wrap;html=1;fixedSize=1;" vertex="1" parent="1">
          <mxGeometry x="1090" y="530" width="140" height="60" as="geometry" />
        </mxCell>
        <mxCell id="3AU_QloPHfD9-ereCDFl-35" value="" style="edgeStyle=orthogonalEdgeStyle;rounded=0;orthogonalLoop=1;jettySize=auto;html=1;" edge="1" parent="1" source="3AU_QloPHfD9-ereCDFl-33" target="3AU_QloPHfD9-ereCDFl-34">
          <mxGeometry relative="1" as="geometry" />
        </mxCell>
        <mxCell id="3AU_QloPHfD9-ereCDFl-46" value="" style="edgeStyle=orthogonalEdgeStyle;rounded=0;orthogonalLoop=1;jettySize=auto;html=1;" edge="1" parent="1" source="3AU_QloPHfD9-ereCDFl-33" target="3AU_QloPHfD9-ereCDFl-45">
          <mxGeometry relative="1" as="geometry" />
        </mxCell>
        <mxCell id="3AU_QloPHfD9-ereCDFl-33" value="&lt;div&gt;Log in&lt;/div&gt;" style="shape=parallelogram;perimeter=parallelogramPerimeter;whiteSpace=wrap;html=1;fixedSize=1;rounded=0;" vertex="1" parent="1">
          <mxGeometry x="360" y="380" width="120" height="60" as="geometry" />
        </mxCell>
        <mxCell id="3AU_QloPHfD9-ereCDFl-116" value="" style="edgeStyle=orthogonalEdgeStyle;rounded=0;orthogonalLoop=1;jettySize=auto;html=1;" edge="1" parent="1" source="3AU_QloPHfD9-ereCDFl-34" target="3AU_QloPHfD9-ereCDFl-115">
          <mxGeometry relative="1" as="geometry" />
        </mxCell>
        <mxCell id="3AU_QloPHfD9-ereCDFl-34" value="&quot;Fejlagtig log in&quot;" style="shape=parallelogram;perimeter=parallelogramPerimeter;whiteSpace=wrap;html=1;fixedSize=1;rounded=0;" vertex="1" parent="1">
          <mxGeometry x="160" y="380" width="120" height="60" as="geometry" />
        </mxCell>
        <mxCell id="3AU_QloPHfD9-ereCDFl-42" value="" style="endArrow=classic;html=1;rounded=0;entryX=0;entryY=1;entryDx=0;entryDy=0;exitX=1;exitY=0;exitDx=0;exitDy=0;" edge="1" parent="1" source="3AU_QloPHfD9-ereCDFl-115" target="3AU_QloPHfD9-ereCDFl-33">
          <mxGeometry width="50" height="50" relative="1" as="geometry">
            <mxPoint x="280" y="520" as="sourcePoint" />
            <mxPoint x="330" y="470" as="targetPoint" />
          </mxGeometry>
        </mxCell>
        <mxCell id="3AU_QloPHfD9-ereCDFl-45" value="&quot;Succesful log in&quot;" style="shape=parallelogram;perimeter=parallelogramPerimeter;whiteSpace=wrap;html=1;fixedSize=1;rounded=0;" vertex="1" parent="1">
          <mxGeometry x="560" y="380" width="120" height="60" as="geometry" />
        </mxCell>
        <mxCell id="3AU_QloPHfD9-ereCDFl-47" value="" style="endArrow=classic;html=1;rounded=0;exitX=0.5;exitY=0;exitDx=0;exitDy=0;entryX=0.5;entryY=1;entryDx=0;entryDy=0;" edge="1" parent="1" source="3AU_QloPHfD9-ereCDFl-45" target="3AU_QloPHfD9-ereCDFl-16">
          <mxGeometry width="50" height="50" relative="1" as="geometry">
            <mxPoint x="750" y="400" as="sourcePoint" />
            <mxPoint x="800" y="350" as="targetPoint" />
          </mxGeometry>
        </mxCell>
        <mxCell id="3AU_QloPHfD9-ereCDFl-51" value="" style="edgeStyle=orthogonalEdgeStyle;rounded=0;orthogonalLoop=1;jettySize=auto;html=1;entryX=0.5;entryY=0;entryDx=0;entryDy=0;" edge="1" parent="1" source="3AU_QloPHfD9-ereCDFl-48" target="3AU_QloPHfD9-ereCDFl-52">
          <mxGeometry relative="1" as="geometry">
            <mxPoint x="1310" y="520" as="targetPoint" />
          </mxGeometry>
        </mxCell>
        <mxCell id="3AU_QloPHfD9-ereCDFl-48" value="Z" style="whiteSpace=wrap;html=1;" vertex="1" parent="1">
          <mxGeometry x="1250" y="380" width="120" height="60" as="geometry" />
        </mxCell>
        <mxCell id="3AU_QloPHfD9-ereCDFl-52" value="Indsæt data fra ordre" style="shape=parallelogram;perimeter=parallelogramPerimeter;whiteSpace=wrap;html=1;fixedSize=1;" vertex="1" parent="1">
          <mxGeometry x="1240" y="530" width="140" height="60" as="geometry" />
        </mxCell>
        <mxCell id="3AU_QloPHfD9-ereCDFl-59" value="" style="edgeStyle=orthogonalEdgeStyle;rounded=0;orthogonalLoop=1;jettySize=auto;html=1;exitX=0.5;exitY=1;exitDx=0;exitDy=0;" edge="1" parent="1" source="3AU_QloPHfD9-ereCDFl-32">
          <mxGeometry relative="1" as="geometry">
            <mxPoint x="1150" y="590" as="sourcePoint" />
            <mxPoint x="1160" y="670" as="targetPoint" />
          </mxGeometry>
        </mxCell>
        <mxCell id="3AU_QloPHfD9-ereCDFl-63" value="" style="edgeStyle=orthogonalEdgeStyle;rounded=0;orthogonalLoop=1;jettySize=auto;html=1;exitX=0.5;exitY=1;exitDx=0;exitDy=0;" edge="1" parent="1" source="3AU_QloPHfD9-ereCDFl-52">
          <mxGeometry relative="1" as="geometry">
            <mxPoint x="1300" y="590" as="sourcePoint" />
            <mxPoint x="1310" y="670" as="targetPoint" />
          </mxGeometry>
        </mxCell>
        <mxCell id="3AU_QloPHfD9-ereCDFl-69" value="" style="edgeStyle=orthogonalEdgeStyle;rounded=0;orthogonalLoop=1;jettySize=auto;html=1;" edge="1" parent="1" source="3AU_QloPHfD9-ereCDFl-65">
          <mxGeometry relative="1" as="geometry">
            <mxPoint x="1010" y="810" as="targetPoint" />
          </mxGeometry>
        </mxCell>
        <mxCell id="3AU_QloPHfD9-ereCDFl-65" value="Click &quot;Udregn&quot;" style="shape=parallelogram;perimeter=parallelogramPerimeter;whiteSpace=wrap;html=1;fixedSize=1;" vertex="1" parent="1">
          <mxGeometry x="950" y="670" width="120" height="60" as="geometry" />
        </mxCell>
        <mxCell id="3AU_QloPHfD9-ereCDFl-74" value="" style="edgeStyle=orthogonalEdgeStyle;rounded=0;orthogonalLoop=1;jettySize=auto;html=1;" edge="1" parent="1" source="3AU_QloPHfD9-ereCDFl-66" target="3AU_QloPHfD9-ereCDFl-72">
          <mxGeometry relative="1" as="geometry" />
        </mxCell>
        <mxCell id="3AU_QloPHfD9-ereCDFl-66" value="Click &quot;Udregn&quot;" style="shape=parallelogram;perimeter=parallelogramPerimeter;whiteSpace=wrap;html=1;fixedSize=1;" vertex="1" parent="1">
          <mxGeometry x="1100" y="670" width="120" height="60" as="geometry" />
        </mxCell>
        <mxCell id="3AU_QloPHfD9-ereCDFl-75" value="" style="edgeStyle=orthogonalEdgeStyle;rounded=0;orthogonalLoop=1;jettySize=auto;html=1;" edge="1" parent="1" source="3AU_QloPHfD9-ereCDFl-67" target="3AU_QloPHfD9-ereCDFl-73">
          <mxGeometry relative="1" as="geometry" />
        </mxCell>
        <mxCell id="3AU_QloPHfD9-ereCDFl-67" value="Click &quot;Udregn&quot;" style="shape=parallelogram;perimeter=parallelogramPerimeter;whiteSpace=wrap;html=1;fixedSize=1;" vertex="1" parent="1">
          <mxGeometry x="1250" y="670" width="120" height="60" as="geometry" />
        </mxCell>
        <mxCell id="3AU_QloPHfD9-ereCDFl-70" value="Aflæs ordre og vurder ændringer" style="rhombus;whiteSpace=wrap;html=1;" vertex="1" parent="1">
          <mxGeometry x="940" y="810" width="140" height="80" as="geometry" />
        </mxCell>
        <mxCell id="3AU_QloPHfD9-ereCDFl-72" value="Aflæs ordre og vurder ændringer" style="rhombus;whiteSpace=wrap;html=1;" vertex="1" parent="1">
          <mxGeometry x="1090" y="810" width="140" height="80" as="geometry" />
        </mxCell>
        <mxCell id="3AU_QloPHfD9-ereCDFl-73" value="Aflæs ordre og vurder ændringer" style="rhombus;whiteSpace=wrap;html=1;" vertex="1" parent="1">
          <mxGeometry x="1240" y="810" width="140" height="80" as="geometry" />
        </mxCell>
        <mxCell id="3AU_QloPHfD9-ereCDFl-87" value="" style="endArrow=none;html=1;rounded=0;" edge="1" parent="1">
          <mxGeometry width="50" height="50" relative="1" as="geometry">
            <mxPoint x="1310" y="920" as="sourcePoint" />
            <mxPoint x="1400" y="920" as="targetPoint" />
          </mxGeometry>
        </mxCell>
        <mxCell id="3AU_QloPHfD9-ereCDFl-88" value="" style="endArrow=none;html=1;rounded=0;" edge="1" parent="1">
          <mxGeometry width="50" height="50" relative="1" as="geometry">
            <mxPoint x="1400" y="919.5" as="sourcePoint" />
            <mxPoint x="1400" y="180" as="targetPoint" />
          </mxGeometry>
        </mxCell>
        <mxCell id="3AU_QloPHfD9-ereCDFl-89" value="" style="endArrow=none;html=1;rounded=0;" edge="1" parent="1">
          <mxGeometry width="50" height="50" relative="1" as="geometry">
            <mxPoint x="1010" y="180" as="sourcePoint" />
            <mxPoint x="1400" y="180" as="targetPoint" />
          </mxGeometry>
        </mxCell>
        <mxCell id="3AU_QloPHfD9-ereCDFl-90" value="" style="endArrow=classic;html=1;rounded=0;entryX=0.5;entryY=0;entryDx=0;entryDy=0;" edge="1" parent="1" target="3AU_QloPHfD9-ereCDFl-26">
          <mxGeometry width="50" height="50" relative="1" as="geometry">
            <mxPoint x="1010" y="180" as="sourcePoint" />
            <mxPoint x="1120" y="580" as="targetPoint" />
          </mxGeometry>
        </mxCell>
        <mxCell id="3AU_QloPHfD9-ereCDFl-94" value="" style="endArrow=none;html=1;rounded=0;exitX=0.657;exitY=0.571;exitDx=0;exitDy=0;exitPerimeter=0;entryX=0.252;entryY=0.548;entryDx=0;entryDy=0;entryPerimeter=0;" edge="1" parent="1">
          <mxGeometry width="50" height="50" relative="1" as="geometry">
            <mxPoint x="1010" y="920" as="sourcePoint" />
            <mxPoint x="1310" y="920" as="targetPoint" />
          </mxGeometry>
        </mxCell>
        <mxCell id="3AU_QloPHfD9-ereCDFl-109" value="" style="edgeStyle=orthogonalEdgeStyle;rounded=0;orthogonalLoop=1;jettySize=auto;html=1;" edge="1" parent="1" target="3AU_QloPHfD9-ereCDFl-108">
          <mxGeometry relative="1" as="geometry">
            <mxPoint x="939.9999999999995" y="780" as="sourcePoint" />
          </mxGeometry>
        </mxCell>
        <mxCell id="3AU_QloPHfD9-ereCDFl-113" value="" style="edgeStyle=orthogonalEdgeStyle;rounded=0;orthogonalLoop=1;jettySize=auto;html=1;" edge="1" parent="1" source="3AU_QloPHfD9-ereCDFl-108" target="3AU_QloPHfD9-ereCDFl-112">
          <mxGeometry relative="1" as="geometry" />
        </mxCell>
        <mxCell id="3AU_QloPHfD9-ereCDFl-108" value="&lt;div&gt;Udskriv plan&lt;/div&gt;" style="shape=parallelogram;perimeter=parallelogramPerimeter;whiteSpace=wrap;html=1;fixedSize=1;sketch=0;pointerEvents=1;resizable=0;" vertex="1" parent="1">
          <mxGeometry x="780" y="750" width="120" height="60" as="geometry" />
        </mxCell>
        <mxCell id="3AU_QloPHfD9-ereCDFl-112" value="Slut" style="rounded=1;whiteSpace=wrap;html=1;sketch=0;pointerEvents=1;resizable=0;" vertex="1" parent="1">
          <mxGeometry x="580" y="750" width="120" height="60" as="geometry" />
        </mxCell>
        <mxCell id="3AU_QloPHfD9-ereCDFl-124" value="" style="edgeStyle=orthogonalEdgeStyle;rounded=0;orthogonalLoop=1;jettySize=auto;html=1;" edge="1" parent="1" source="3AU_QloPHfD9-ereCDFl-115" target="3AU_QloPHfD9-ereCDFl-123">
          <mxGeometry relative="1" as="geometry" />
        </mxCell>
        <mxCell id="3AU_QloPHfD9-ereCDFl-115" value="&lt;div&gt;Prøv igen&lt;/div&gt;" style="rhombus;whiteSpace=wrap;html=1;" vertex="1" parent="1">
          <mxGeometry x="160" y="520" width="120" height="80" as="geometry" />
        </mxCell>
        <mxCell id="3AU_QloPHfD9-ereCDFl-123" value="&quot;Ring til it-service&quot;" style="shape=parallelogram;perimeter=parallelogramPerimeter;whiteSpace=wrap;html=1;fixedSize=1;" vertex="1" parent="1">
          <mxGeometry x="350" y="530" width="130" height="60" as="geometry" />
        </mxCell>
        <mxCell id="3AU_QloPHfD9-ereCDFl-127" value="" style="endArrow=classic;html=1;rounded=0;entryX=0.5;entryY=0;entryDx=0;entryDy=0;" edge="1" parent="1" target="3AU_QloPHfD9-ereCDFl-112">
          <mxGeometry width="50" height="50" relative="1" as="geometry">
            <mxPoint x="640" y="560" as="sourcePoint" />
            <mxPoint x="560" y="470" as="targetPoint" />
          </mxGeometry>
        </mxCell>
        <mxCell id="3AU_QloPHfD9-ereCDFl-128" value="" style="endArrow=none;html=1;rounded=0;exitX=1;exitY=0.5;exitDx=0;exitDy=0;" edge="1" parent="1" source="3AU_QloPHfD9-ereCDFl-123">
          <mxGeometry width="50" height="50" relative="1" as="geometry">
            <mxPoint x="510" y="520" as="sourcePoint" />
            <mxPoint x="640" y="560" as="targetPoint" />
          </mxGeometry>
        </mxCell>
        <mxCell id="3AU_QloPHfD9-ereCDFl-129" value="" style="endArrow=none;html=1;rounded=0;entryX=0;entryY=0;entryDx=0;entryDy=0;" edge="1" parent="1" target="3AU_QloPHfD9-ereCDFl-70">
          <mxGeometry width="50" height="50" relative="1" as="geometry">
            <mxPoint x="940" y="780" as="sourcePoint" />
            <mxPoint x="740" y="570" as="targetPoint" />
          </mxGeometry>
        </mxCell>
        <mxCell id="3AU_QloPHfD9-ereCDFl-131" value="" style="endArrow=none;html=1;rounded=0;exitX=0.581;exitY=0.714;exitDx=0;exitDy=0;exitPerimeter=0;entryX=0;entryY=0;entryDx=0;entryDy=0;" edge="1" parent="1" target="3AU_QloPHfD9-ereCDFl-72">
          <mxGeometry width="50" height="50" relative="1" as="geometry">
            <mxPoint x="1080" y="780" as="sourcePoint" />
            <mxPoint x="980" y="680" as="targetPoint" />
          </mxGeometry>
        </mxCell>
        <mxCell id="3AU_QloPHfD9-ereCDFl-132" value="" style="endArrow=none;html=1;rounded=0;entryX=0;entryY=0;entryDx=0;entryDy=0;" edge="1" parent="1" target="3AU_QloPHfD9-ereCDFl-73">
          <mxGeometry width="50" height="50" relative="1" as="geometry">
            <mxPoint x="1230" y="780" as="sourcePoint" />
            <mxPoint x="1285" y="830" as="targetPoint" />
          </mxGeometry>
        </mxCell>
        <mxCell id="3AU_QloPHfD9-ereCDFl-133" value="" style="endArrow=none;html=1;rounded=0;" edge="1" parent="1">
          <mxGeometry width="50" height="50" relative="1" as="geometry">
            <mxPoint x="940" y="780" as="sourcePoint" />
            <mxPoint x="1230" y="780" as="targetPoint" />
          </mxGeometry>
        </mxCell>
        <mxCell id="3AU_QloPHfD9-ereCDFl-134" value="" style="endArrow=none;html=1;rounded=0;exitX=0.5;exitY=1;exitDx=0;exitDy=0;entryX=0.721;entryY=0.121;entryDx=0;entryDy=0;entryPerimeter=0;" edge="1" parent="1" source="3AU_QloPHfD9-ereCDFl-70">
          <mxGeometry width="50" height="50" relative="1" as="geometry">
            <mxPoint x="1050" y="820" as="sourcePoint" />
            <mxPoint x="1010" y="920" as="targetPoint" />
          </mxGeometry>
        </mxCell>
        <mxCell id="3AU_QloPHfD9-ereCDFl-135" value="" style="endArrow=none;html=1;rounded=0;exitX=0.5;exitY=1;exitDx=0;exitDy=0;entryX=0.721;entryY=0.121;entryDx=0;entryDy=0;entryPerimeter=0;" edge="1" parent="1">
          <mxGeometry width="50" height="50" relative="1" as="geometry">
            <mxPoint x="1159.71" y="890" as="sourcePoint" />
            <mxPoint x="1159.71" y="920" as="targetPoint" />
          </mxGeometry>
        </mxCell>
        <mxCell id="3AU_QloPHfD9-ereCDFl-136" value="" style="endArrow=none;html=1;rounded=0;exitX=0.5;exitY=1;exitDx=0;exitDy=0;entryX=0.721;entryY=0.121;entryDx=0;entryDy=0;entryPerimeter=0;" edge="1" parent="1">
          <mxGeometry width="50" height="50" relative="1" as="geometry">
            <mxPoint x="1309.71" y="890" as="sourcePoint" />
            <mxPoint x="1309.71" y="920" as="targetPoint" />
          </mxGeometry>
        </mxCell>
      </root>
    </mxGraphModel>
  </diagram>
</mxfile>
